# xmcd CD database file
#
# Track frame offsets:
#	150
#	19080
#	41420
#	58777
#	76327
#	94342
#	114650
#	132132
#	155177
#	172050
#	190652
#	218175
#	239870
#	257450
#
# Disc length: 3575 seconds
#
# Revision: 0
# Processed by: cddbd v1.5.1PL0 Copyright (c) Steve Scherf et al.
# Submitted via: CDex 1.51
#
DISCID=c60df50e
DTITLE=ルーンプリンセス - ルーンプリンセス　ヴォーカルアルバム
DYEAR=2004
DGENRE=Vocal
TTITLE0=プロローグ
TTITLE1=届きますように。。。　落合祐里香
TTITLE2=ｕｐ　ｃｕｒｒｅｎｔ　清水愛
TTITLE3=君にハニーパイ　田村ゆかり
TTITLE4=ふんわりめしませ　中西環
TTITLE5=フリルな気分　田中理恵
TTITLE6=小さな女の子は好きですか　金田朋子
TTITLE7=以心伝心　松来未佑
TTITLE8=キット…モット…　飯塚雅弓
TTITLE9=ｆｉｇｕｒｅｄ　ｄｒｅａｍ　吉川由弥
TTITLE10=Ｄｒｏｐ　ｏｆ　Ｗｉｓｈ　佐久間紅美
TTITLE11=Ｄｒｅｓｓ　又吉愛
TTITLE12=夢の続き　南里侑香
TTITLE13=エピローグ
EXTD=YEAR: 2004/06/23
EXTT0=
EXTT1=
EXTT2=
EXTT3=
EXTT4=
EXTT5=
EXTT6=
EXTT7=
EXTT8=
EXTT9=
EXTT10=
EXTT11=
EXTT12=
EXTT13=
PLAYORDER=
